<?xml version="1.0" encoding="utf-8"?>
<!-- Generator: Adobe Illustrator 18.0.0, SVG Export Plug-In . SVG Version: 6.00 Build 0)  -->
<!DOCTYPE svg PUBLIC "-//W3C//DTD SVG 1.0//EN" "http://www.w3.org/TR/2001/REC-SVG-20010904/DTD/svg10.dtd">
<svg version="1.0" id="Layer_1" xmlns="http://www.w3.org/2000/svg" xmlns:xlink="http://www.w3.org/1999/xlink" x="0px" y="0px"
	 viewBox="0 0 68 68" enable-background="new 0 0 68 68" xml:space="preserve">
<g>
	<path d="M58.3,65H13.7v-6.5c0-8.1,4.1-15.4,10.8-19.5c-3.4-3-5.5-7.4-5.5-12.4v-2.5h-7v-2h4.4C16.9,11.5,25.5,3,36,3
		s19.1,8.5,19.6,19.1H60v2h-7v2.5c0,5-2.1,9.4-5.5,12.4c1.6,1,3,2.1,4.3,3.4c4.2,4.3,6.5,10.1,6.5,16.1V65z M15.7,63h40.7v-4.5
		c0-5.5-2.1-10.8-6-14.7c-1.3-1.4-2.9-2.5-4.6-3.5c-2.7,1.8-6.1,2.9-9.8,2.9c-3.7,0-7.1-1-9.8-2.9C19.7,44,15.7,50.9,15.7,58.5V63z
		 M21,24.1v2.5c0,8.3,6.4,14.6,15,14.6s15-6.3,15-14.6v-2.5H21z M18.4,22.1h35.3c-0.4-7.4-5.1-13.6-11.6-16V11h-2V5.5
		c-2.6-0.6-5.4-0.6-8,0V11h-2V6.1C23.5,8.5,18.8,14.7,18.4,22.1z"/>
</g>
</svg>
