<?xml version="1.0" encoding="utf-8"?>
<!-- Generator: Adobe Illustrator 18.0.0, SVG Export Plug-In . SVG Version: 6.00 Build 0)  -->
<!DOCTYPE svg PUBLIC "-//W3C//DTD SVG 1.0//EN" "http://www.w3.org/TR/2001/REC-SVG-20010904/DTD/svg10.dtd">
<svg version="1.0" id="Layer_1" xmlns="http://www.w3.org/2000/svg" xmlns:xlink="http://www.w3.org/1999/xlink" x="0px" y="0px"
	 viewBox="0 0 68 68" enable-background="new 0 0 68 68" xml:space="preserve">
<path d="M61.7,15.3l-9.5-9.5c-0.4-0.4-1-0.4-1.4,0L33.5,23.1L15.7,5.3c-0.4-0.4-1-0.4-1.4,0l-9,9c-0.4,0.4-0.4,1,0,1.4l17.8,17.8
	L6.3,50.3c-0.4,0.4-0.4,1,0,1.4l9.5,9.5c0.2,0.2,0.5,0.3,0.7,0.3s0.5-0.1,0.7-0.3l16.3-16.3l14.8,14.8c0,0,0,0,0,0
	c0,0,0.1,0.1,0.1,0.1c0,0,0.1,0.1,0.2,0.1c0,0,0.1,0,0.1,0c0.1,0,0.2,0,0.3,0h9c0.5,0,1-0.5,1-1V49c0-0.1,0-0.3-0.1-0.4
	c0,0,0-0.1,0-0.1c0,0,0-0.1-0.1-0.1c0,0-0.1-0.1-0.1-0.1l0,0L44.4,34l17.3-17.3C62.1,16.3,62.1,15.7,61.7,15.3z M7.4,15L15,7.4
	l2.1,2.1l-7.6,7.6L7.4,15z M10.9,18.5l7.6-7.6l13.6,13.6l-7.6,7.6l0,0L10.9,18.5z M57,58h-5.8l5.8-6.4V58z M56.6,49L49,57.5l-14-14
	l8.1-8.1L56.6,49z M16.5,59.1L8.4,51l7.6-7.6l2.3,2.3c0.2,0.2,0.5,0.3,0.7,0.3s0.5-0.1,0.7-0.3c0.4-0.4,0.4-1,0-1.4L17.4,42l1.6-1.6
	l1.3,1.3c0.2,0.2,0.5,0.3,0.7,0.3s0.5-0.1,0.7-0.3c0.4-0.4,0.4-1,0-1.4L20.4,39l1.6-1.6l2.3,2.3c0.2,0.2,0.5,0.3,0.7,0.3
	s0.5-0.1,0.7-0.3c0.4-0.4,0.4-1,0-1.4L23.4,36l1.6-1.6l1.3,1.3c0.2,0.2,0.5,0.3,0.7,0.3s0.5-0.1,0.7-0.3c0.4-0.4,0.4-1,0-1.4
	L26.4,33l0,0l1.6-1.6l2.3,2.3c0.2,0.2,0.5,0.3,0.7,0.3s0.5-0.1,0.7-0.3c0.4-0.4,0.4-1,0-1.4L29.4,30l1.6-1.6l2.3,2.3
	c0.2,0.2,0.5,0.3,0.7,0.3s0.5-0.1,0.7-0.3c0.4-0.4,0.4-1,0-1.4L32.4,27l1.6-1.6l0,0l1.3,1.3c0.2,0.2,0.5,0.3,0.7,0.3
	s0.5-0.1,0.7-0.3c0.4-0.4,0.4-1,0-1.4L35.4,24l1.6-1.6l2.3,2.3c0.2,0.2,0.5,0.3,0.7,0.3s0.5-0.1,0.7-0.3c0.4-0.4,0.4-1,0-1.4
	L38.4,21l1.6-1.6l1.3,1.3c0.2,0.2,0.5,0.3,0.7,0.3s0.5-0.1,0.7-0.3c0.4-0.4,0.4-1,0-1.4L41.4,18l1.6-1.6l2.3,2.3
	c0.2,0.2,0.5,0.3,0.7,0.3s0.5-0.1,0.7-0.3c0.4-0.4,0.4-1,0-1.4L44.4,15l7.1-7.1l8.1,8.1L16.5,59.1z"/>
</svg>
