<?xml version="1.0" encoding="utf-8"?>
<!-- Generated by IcoMoon.io -->
<!DOCTYPE svg PUBLIC "-//W3C//DTD SVG 1.1//EN" "http://www.w3.org/Graphics/SVG/1.1/DTD/svg11.dtd">
<svg version="1.1" xmlns="http://www.w3.org/2000/svg" xmlns:xlink="http://www.w3.org/1999/xlink" width="1024" height="1024" viewBox="0 0 1024 1024">
<g id="icomoon-ignore">
</g>
<path d="M240.941 858.353v-496.941h376.471v-30.118h-376.471v-45.176h-30.118v45.176h-45.176v30.118h45.176v496.941z"></path>
<path d="M692.706 918.588h-572.235v-737.882h105.412v15.059c0 7.529 7.529 15.059 15.059 15.059 9.035 0 15.059-7.529 15.059-15.059v-15.059h75.294v15.059c0 7.529 7.529 15.059 15.059 15.059 9.035 0 15.059-7.529 15.059-15.059v-15.059h90.353v15.059c0 7.529 7.529 15.059 15.059 15.059 9.035 0 15.059-7.529 15.059-15.059v-15.059h75.294v15.059c0 7.529 7.529 15.059 15.059 15.059 9.035 0 15.059-7.529 15.059-15.059v-15.059h105.412v240.941h30.118v-271.059h-135.529v-30.118c0-7.529-6.024-15.059-15.059-15.059-7.529 0-15.059 7.529-15.059 15.059v30.118h-75.294v-30.118c0-7.529-6.024-15.059-15.059-15.059-7.529 0-15.059 7.529-15.059 15.059v30.118h-90.353v-30.118c0-7.529-6.024-15.059-15.059-15.059-7.529 0-15.059 7.529-15.059 15.059v30.118h-75.294v-30.118c0-7.529-6.024-15.059-15.059-15.059-7.529 0-15.059 7.529-15.059 15.059v30.118h-135.529v798.118h632.471v-150.588h-30.118v120.471z"></path>
<path d="M959.247 350.871c-12.047-12.047-30.118-19.576-48.188-19.576s-34.635 7.529-48.188 19.576c0 0 0 1.506-1.506 1.506 0 0-1.506 0-1.506 1.506l-364.424 367.435c-1.506 1.506-1.506 3.012-3.012 4.518 0 0 0 0 0 1.506l-51.2 121.976c-3.012 6.024-1.506 13.553 3.012 18.071 3.012 3.012 7.529 4.518 12.047 4.518 1.506 0 4.518 0 6.024-1.506l121.976-51.2c0 0 0 0 0 0v0c1.506 0 1.506-1.506 3.012-1.506s1.506-1.506 3.012-1.506v0c0 0 0 0 0 0l332.8-334.306c0 0 0 0 0 0l33.129-33.129c0 0 0-1.506 1.506-1.506 0 0 1.506 0 1.506-1.506 12.047-12.047 19.576-30.118 19.576-48.188 0-16.565-7.529-33.129-19.576-46.682zM486.4 823.718l25.6-61.741 36.141 36.141-61.741 25.6zM578.259 780.047l-48.188-48.188 308.706-310.212 48.188 48.188-308.706 310.212zM935.153 423.153c0 0 0 0 0 0-1.506 1.506-1.506 1.506-1.506 1.506l-21.082 22.588-48.188-48.188 21.082-22.588c0 0 0-1.506 1.506-1.506 0 0 1.506 0 1.506-1.506 12.047-12.047 34.635-12.047 48.188 0 6.024 6.024 10.541 15.059 10.541 24.094-1.506 10.541-6.024 19.576-12.047 25.6z"></path>
</svg>
