<?xml version="1.0" encoding="utf-8"?>
<!-- Generator: Adobe Illustrator 18.0.0, SVG Export Plug-In . SVG Version: 6.00 Build 0)  -->
<!DOCTYPE svg PUBLIC "-//W3C//DTD SVG 1.0//EN" "http://www.w3.org/TR/2001/REC-SVG-20010904/DTD/svg10.dtd">
<svg version="1.0" id="Layer_1" xmlns="http://www.w3.org/2000/svg" xmlns:xlink="http://www.w3.org/1999/xlink" x="0px" y="0px"
	 viewBox="0 0 68 68" enable-background="new 0 0 68 68" xml:space="preserve">
<g>
	<path d="M16,5v4h-5v53h37v-5h1c0.1,0,0.3,0,0.4-0.1c0.1-0.1,0.2-0.1,0.3-0.2l8-8c0.1-0.1,0.2-0.2,0.2-0.3C58,48.3,58,48.1,58,48V5
		H16z M46,60H13V11h3v46h30V60z M50,53.6V49h4.6L50,53.6z M56,47h-8v8h-2H18V7h38V47z"/>
	<path d="M26,21h22c0.6,0,1-0.4,1-1s-0.4-1-1-1H26c-0.6,0-1,0.4-1,1S25.4,21,26,21z"/>
	<path d="M26,27h22c0.6,0,1-0.4,1-1s-0.4-1-1-1H26c-0.6,0-1,0.4-1,1S25.4,27,26,27z"/>
	<path d="M26,33h22c0.6,0,1-0.4,1-1s-0.4-1-1-1H26c-0.6,0-1,0.4-1,1S25.4,33,26,33z"/>
	<path d="M26,39h14c0.6,0,1-0.4,1-1s-0.4-1-1-1H26c-0.6,0-1,0.4-1,1S25.4,39,26,39z"/>
</g>
</svg>
