<?xml version="1.0" encoding="utf-8"?>
<!-- Generator: Adobe Illustrator 18.0.0, SVG Export Plug-In . SVG Version: 6.00 Build 0)  -->
<!DOCTYPE svg PUBLIC "-//W3C//DTD SVG 1.0//EN" "http://www.w3.org/TR/2001/REC-SVG-20010904/DTD/svg10.dtd">
<svg version="1.0" id="Layer_1" xmlns="http://www.w3.org/2000/svg" xmlns:xlink="http://www.w3.org/1999/xlink" x="0px" y="0px"
	 viewBox="0 0 68 68" enable-background="new 0 0 68 68" xml:space="preserve">
<g>
	<polygon points="16,57 16,24 41,24 41,22 16,22 16,19 14,19 14,22 11,22 11,24 14,24 14,57 	"/>
	<path d="M46,61H8V12h7v1c0,0.5,0.5,1,1,1c0.6,0,1-0.5,1-1v-1h5v1c0,0.5,0.5,1,1,1c0.6,0,1-0.5,1-1v-1h6v1c0,0.5,0.5,1,1,1
		c0.6,0,1-0.5,1-1v-1h5v1c0,0.5,0.5,1,1,1c0.6,0,1-0.5,1-1v-1h7v16h2V10h-9V8c0-0.5-0.4-1-1-1c-0.5,0-1,0.5-1,1v2h-5V8
		c0-0.5-0.4-1-1-1c-0.5,0-1,0.5-1,1v2h-6V8c0-0.5-0.4-1-1-1c-0.5,0-1,0.5-1,1v2h-5V8c0-0.5-0.4-1-1-1c-0.5,0-1,0.5-1,1v2H6v53h42V53
		h-2V61z"/>
	<path d="M63.7,23.3c-0.8-0.8-2-1.3-3.2-1.3c-1.2,0-2.3,0.5-3.2,1.3c0,0,0,0.1-0.1,0.1c0,0-0.1,0-0.1,0.1L32.9,47.9
		c-0.1,0.1-0.1,0.2-0.2,0.3c0,0,0,0,0,0.1l-3.4,8.1c-0.2,0.4-0.1,0.9,0.2,1.2c0.2,0.2,0.5,0.3,0.8,0.3c0.1,0,0.3,0,0.4-0.1l8.1-3.4
		c0,0,0,0,0,0l0,0c0.1,0,0.1-0.1,0.2-0.1c0.1,0,0.1-0.1,0.2-0.1l0,0c0,0,0,0,0,0L61.3,32c0,0,0,0,0,0l2.2-2.2c0,0,0-0.1,0.1-0.1
		c0,0,0.1,0,0.1-0.1c0.8-0.8,1.3-2,1.3-3.2C65,25.3,64.5,24.2,63.7,23.3z M32.3,54.7l1.7-4.1l2.4,2.4L32.3,54.7z M38.4,51.8
		l-3.2-3.2l20.5-20.6l3.2,3.2L38.4,51.8z M62.1,28.1C62.1,28.1,62.1,28.1,62.1,28.1C62,28.2,62,28.2,62,28.2l-1.4,1.5l-3.2-3.2
		l1.4-1.5c0,0,0-0.1,0.1-0.1c0,0,0.1,0,0.1-0.1c0.8-0.8,2.3-0.8,3.2,0c0.4,0.4,0.7,1,0.7,1.6C62.8,27.1,62.5,27.7,62.1,28.1z"/>
</g>
</svg>
